<svg xmlns="http://www.w3.org/2000/svg" viewBox="0 0 256 256" role="img" aria-labelledby="title desc">
  <title id="title">dewdrop library icon</title>
  <desc id="desc">A precise droplet containing connected protocol nodes.</desc>
  <defs>
    <linearGradient id="drop-fill" x1="64" x2="206" y1="30" y2="230" gradientUnits="userSpaceOnUse">
      <stop stop-color="#39d4b8"/>
      <stop offset="0.58" stop-color="#138a92"/>
      <stop offset="1" stop-color="#0d3f57"/>
    </linearGradient>
  </defs>
  <path fill="#082431" d="M128 246c-55.4 0-96-37.6-96-90.7 0-31.7 20.6-63.2 41.9-91.2 14.2-18.7 29.1-35.7 39.7-47.2a19.7 19.7 0 0 1 28.8 0c10.6 11.5 25.5 28.5 39.7 47.2 21.3 28 41.9 59.5 41.9 91.2 0 53.1-40.6 90.7-96 90.7Z"/>
  <path fill="url(#drop-fill)" d="M128 226c-43.9 0-76-29.7-76-71 0-24.1 17.4-51.2 35.8-75.2 13.8-18 28.1-34.1 37-43.7a4.4 4.4 0 0 1 6.4 0c8.9 9.6 23.2 25.7 37 43.7 18.4 24 35.8 51.1 35.8 75.2 0 41.3-32.1 71-76 71Z"/>
  <path fill="#d9fff8" d="M96 84c13.7-18 26.2-31.1 28.6-33.6a4.6 4.6 0 0 1 6.8 0c2.8 3 15.2 16.1 28.6 33.6-9.8-6.2-20.8-9.3-32-9.3s-22.2 3.1-32 9.3Z" opacity="0.48"/>
  <g fill="none" stroke="#e8fffb" stroke-linecap="round" stroke-linejoin="round" stroke-width="9">
    <path d="M85 151h34l24-34h28" opacity="0.95"/>
    <path d="M119 151l24 34h28" opacity="0.8"/>
    <path d="M143 117v68" opacity="0.72"/>
  </g>
  <g fill="#082431" stroke="#e8fffb" stroke-width="8">
    <circle cx="85" cy="151" r="13"/>
    <circle cx="143" cy="117" r="13"/>
    <circle cx="143" cy="185" r="13"/>
    <circle cx="171" cy="117" r="13"/>
    <circle cx="171" cy="185" r="13"/>
  </g>
</svg>
